# xmcd
#
# Track frame offsets:
#	150
#	18597
#	35782
#	54002
#	73625
#	91172
#	106102
#	133480
#	151345
#	169062
#	184360
#	200242
#	214845
#	232570
#	248065
#	265712
#
# Disc length: 3772 seconds
#
# Revision: 5
# Processed by: cddbd v1.4PL0 Copyright (c) Steve Scherf et al.
# Submitted via: dBpowerAMP V4.0
#
DISCID=db0eba10
DTITLE=Novelas - Corpo Dourado - Internacional
DYEAR=1998
DGENRE=Soundtrack
TTITLE0=Hanson-I Will Come To You
TTITLE1=Mariah Carey-My All
TTITLE2=Natalie Imbruglia-Torn
TTITLE3=Robbie Williams-Angels
TTITLE4=T-Shirt-You Sexy Thing
TTITLE5=Nicki French-Secrets
TTITLE6=Lorenna Mckennit-The Mummer's Dance
TTITLE7=Debra Michaels-How Do I Live
TTITLE8=Michael Johnson-Whenever I Call You Friend
TTITLE9=Betsy Loop-Ain't That Just the Way
TTITLE10=Shania Twain-You're Still The One
TTITLE11=Faith Hill-Take Me As I Am
TTITLE12=La Bouche-Say You'll be Mine
TTITLE13=She Moves-Breaking All The Rules
TTITLE14=Rising Sun-Sunshyme
TTITLE15=Stars And Stripers-Lonely
EXTD=
EXTT0=
EXTT1=
EXTT2=
EXTT3=
EXTT4=
EXTT5=
EXTT6=
EXTT7=
EXTT8=
EXTT9=
EXTT10=
EXTT11=
EXTT12=
EXTT13=
EXTT14=
EXTT15=
PLAYORDER=
